/* XPM */
static char *_883cfffb0ee4911a6ce97138cd78178pHTJ9N3ii1qHMqyy[] = {
/* columns rows colors chars-per-pixel */
"64 64 137 2 ",
"   c #6E84B8",
".  c #7286B4",
"X  c #7689B6",
"o  c #7A8AB7",
"O  c #7486BB",
"+  c #7987B9",
"@  c #748CBA",
"#  c #7B8BBB",
"$  c #7692BD",
"%  c #7B92BE",
"&  c #778BC1",
"*  c #7B8DC3",
"=  c #7D8EC8",
"-  c #7C94C3",
";  c #7D9BC5",
":  c #7E92CB",
">  c #7E9DC9",
",  c #7FA0C9",
"<  c #828DBE",
"1  c #8392BE",
"2  c #8894BF",
"3  c #838EC2",
"4  c #888DC2",
"5  c #808FCB",
"6  c #8494C3",
"7  c #8B94C5",
"8  c #849BC6",
"9  c #8B9AC6",
"0  c #8293CD",
"q  c #8C95C9",
"w  c #849DC9",
"e  c #8B9DC9",
"r  c #9096C7",
"t  c #939AC6",
"y  c #9196CB",
"u  c #939BCC",
"i  c #999FCD",
"p  c #8496D3",
"a  c #8698D6",
"s  c #8999D5",
"d  c #8799D9",
"f  c #8A9CDB",
"g  c #9697D0",
"h  c #949DD1",
"j  c #9B9CD4",
"k  c #9F9ED8",
"l  c #A09ED9",
"z  c #84A3CC",
"x  c #8CA2CD",
"c  c #85A8CE",
"v  c #93A2CD",
"b  c #9AA2CE",
"n  c #85A6D1",
"m  c #8CA6D2",
"M  c #87A9D2",
"N  c #8AABD5",
"B  c #8DAED9",
"V  c #93A5D2",
"C  c #9CA5D2",
"Z  c #95AAD5",
"A  c #9BAAD6",
"S  c #90A0DF",
"D  c #9DA5DA",
"F  c #95ADD9",
"G  c #9AADDA",
"H  c #8EB2DB",
"J  c #91B4DE",
"K  c #9DB2DE",
"L  c #92B8DF",
"P  c #A1A6D3",
"I  c #A4A9D6",
"U  c #A8ABD7",
"Y  c #A4A3DD",
"T  c #A8A4DF",
"R  c #A4ABDC",
"E  c #AAADDB",
"W  c #A3B4D4",
"Q  c #A1B4DE",
"!  c #AEB1DE",
"~  c #B0B2DE",
"^  c #8D9EE0",
"/  c #8EA0E2",
"(  c #92A1E0",
")  c #9FA9E2",
"_  c #8FB7E1",
"`  c #93B6E1",
"'  c #9DB6E1",
"]  c #95BBE4",
"[  c #9BBAE7",
"{  c #9CB9E6",
"}  c #98BCE6",
"|  c #9ABCE6",
" . c #97BEE8",
".. c #99BFE8",
"X. c #9ABEE8",
"o. c #9BBFE8",
"O. c #A7A5E0",
"+. c #A9A6E1",
"@. c #A5ABE0",
"#. c #A7AFE0",
"$. c #ABAAE4",
"%. c #A2B5E1",
"&. c #A3B7E3",
"*. c #AAB2E3",
"=. c #ADB3E1",
"-. c #ABB4E2",
";. c #AFB5E3",
":. c #AEB7E5",
">. c #A3B8E3",
",. c #A2B8E4",
"<. c #A6B9E5",
"1. c #A4BBE6",
"2. c #A4BBE7",
"3. c #A9BBE6",
"4. c #ADB8E6",
"5. c #A5BCE8",
"6. c #A9BDE9",
"7. c #B1B4E0",
"8. c #B1B4E2",
"9. c #B3B5E4",
"0. c #B4B7E5",
"q. c #B8B7E5",
"w. c #B2B9E6",
"e. c #B6B8E5",
"r. c #B4B8E6",
"t. c #B8B9E6",
"y. c #B2B9E8",
"u. c #BBBBE9",
"i. c #99C0E7",
"p. c #99C0E9",
"a. c #9BC1EB",
"s. c #9CC1EA",
"d. c #A0C1EA",
"f. c #AAC0EB",
"g. c #B7C8EA",
"h. c #B8C9EA",
"j. c #D3DFF6",
/* pixels */
"' m E 0.8.r.=.w.;.:.A N } L i.L } N I r.8.r.8.r.8.0.E N ..] p.] } } } ..] ..c K >.%.<.' ,.' <.V j +.Y +.Y +.y H ` J ] L } z P q.",
"' x E r.8.r.;.y.-.4.A N } ` i.` } N I r.8.t.8.t.8.0.E N p.] p.} ..} } p.} p.c K >.,.<.%.<.' <.V j +.Y +.Y +.y B ` J } ` i.z C t.",
"w % 8 e e e # e 9 e 6 - w 8 w $ ; - 6 e 9 e 1 t t t 7 6 e # 8 8 8 8 8 w @ : O * - - - # e 8 e % 1 6 # w 6 8 % - ; ; , @ - O # 6 ",
"} ` ] ] ] ] w <.%.<.%.%.<.%.<.x ' ' { { ' { x 9.8.0.r.9.r.t R R $.R R #.6 f d f f d d w <.%.<.%.>.%.c p.] p.} ..} } ..: f f f f ",
"] J ` ` J ` x %.K %.K K %.K %.e J J ` ` J { e 8.! 8.8.! 8.u R R R R R R 6 d a f a a a 6 %.K %.K %.K z } ` } ` ] ] ` ] : f p s s ",
"..] ....} } x 3.>.<.<.<.3.>.6.x { { { [ { ..V r.r.u.u.r.u.b =.R *.*.*.*.6 f f f f f f e 6.,.6.<.<.>.N p.} p.} p.p...p.> f f f f ",
"B M N N F N % Z Z Z Z Z Z V Z 6 m m m N m N % P P I I P I 6 C V V V V C # 0 0 0 : : : # Z V F V V V - B N B N N N N N O 0 : 0 0 ",
"N - z N M N M N M N w & 0 0 0 : 0 * 7 P b I b P C P u ; N c N m N w 7 I b C C I 9 8 m x Z m N 8 7 u y u y h # > N c N c N c M c ",
"} M J p.} p.} p.} p.H p ( f ( f S s U t.8.t.0.t.0.t.! N } ] ..] } J A u.0.u.8.u.E F <.' <.' ..Z j +.T +.T +.u H } ] } ] i.] i.} ",
"] M H ] ] } ` ..] ] B 0 f s f s f 0 P r.! 0.! r.8.8.E N ] J } J ] B C 0.! t.! 0.U Z ' J { J { m j Y Y T Y Y u H ` L ] J ] L ] ] ",
"..N ` p. .p.} p.} p.J p ( f ( f ( s I u.0.u.0.u.0.t.! N ..] ..] } J C u.0.u.r.u.E F <.' <.{ <.m j +.T $.T $.u J ..} p.} p.] i.} ",
"w % ; z w z - w w z - @ - - - O & O < 7 7 9 6 u 9 u 9 % z % w w w ; 2 u 9 u 7 u 7 6 e 9 e % w % < 7 < q q y o 8 x 8 8 % w ; w w ",
"%.K %.%.%.Q 8 %.K %.K K %.K >.8 s f f f a f : ' K ' ' ' ' w ' K %.%.' %.K >.e ! 8.8.0.~ 0.u ` ` ` J u 0.~ 0.~ 0.8.~ 8.e %.K %.%.",
">.K %.%.%.%.e %.K %.' %.%.K >.w s f f f a f 0 ' K ' ' ' { x ' K %.%.' ,.K ,.v ~ 8.8.0.~ t.v ` ' ` J b t.! 0.~ 8.8.~ 0.v >.K %.%.",
"5.%.<.<.<.<.x <.%.<.<.>.<.%.<.e f f f f f f 0 { ' ,.,.{ <.x <.>.<.<.,.<.%.5.Z 0.t.r.u.0.u.C { { { ' Z u.8.u.0.r.r.0.t.v 5.>.<.<.",
"K G K K K G 8 K G K K G K G K 6 p p a a p a - K F K K K K 8 K K K K K K G ' 9 E ! ! ~ E ~ 9 F F J F 9 E E ~ E ! ! E E 9 K G K K ",
"9 # 9 v u b 9 b u b 2 % c z c ; w > w > # q 4 q q q 4 % x 8 x e x 6 O : = : & * # 8 v e x 8 x % ; z ; z w z @ 8 x e x 8 x e x 8 ",
"#.h ! t.r.u.r.u.0.u.E J p.} p.} p.} p.} h $.Y $.T +.j Z 6.>.5.,.<.G p / f / f ^ a G 6.%.5.>.6.Z H ..] p.] p.N K <.,.5.%.5.>.<.<.",
"R u E 8.~ 0.~ 0.! 0.I N } L } ` } ] ` J h Y Y T Y Y j V >.K >.K ' Z 0 f a f a f p Z %.K >.K %.m B ] J ] H ] c F %.K %.K %.K ' %.",
"*.V 8.u.t.u.r.u.r.u.E J p.i.p.} p.p.p.} h $.+.$.O.+.Y Z 6.<.6.<.6.K p / f / f / a G 6.<.6.<.f.Z J ..} p.] p.N K <.<.6.,.6.,.5.<.",
"e 6 u C b C t C b C 7 ; M c M z M c c z 6 u 7 y y u 6 6 V e x x V 8 O : & 5 = = & e v e V x m 6 ; M w m z m % 8 v x v 8 x x x x ",
"J H H J H H - B N B N N B N B - N N N B N H - G G F F F K - H H H H H H 6 j j j j j g 6 K F G A G Z 7 E I E I E E I U 6 H N H H ",
"p.} } } } } z ` J ` ` ` ` J ] z J ` ` ] H ` c >.' ' ,.>.<.z } ] } } } } e T Y +.Y Y Y u <.K <.' %.K b t.8.r.8.0.0.8.0.x ] ` ] ` ",
"p.} } } } } z ` J ` ` ` ` J ] z J L ` ` H ` c %.' %.,.' ,.z } ` } } ] } e T Y +.Y Y Y u ,.K <.%.%.K b t.8.t.8.0.0.8.0.x ] ` ] ` ",
"..] } } ] ] ; ` J ` ` ` ` J ` > H J J ` J ` w ' ' %.' ' ,.w ] ` } ] ] ] w Y l Y Y Y l e <.Q ,.%.%.K b t.8.r.0.0.0.8.0.e ] ` ` ` ",
"z % 8 e 9 e 2 e 9 e 1 % w 8 w % w - O - - -   * # 9 e 9 e 2 e 9 e 6 % w % 7 6 7 3 - : $ w ; w % # * O 6 3 5 o 7 9 9 e . 8 8 w 8 ",
"..N E t.0.t.0.u.0.t.P Z 3.%.3.%.3.F p f f f f f p E t.0.u.0.u.0.t.E Z 5.%.5.%.<.Z N } ` } _  .n p f f f d f = G <.%.<.x 3.>.3.3.",
"` c U 8.~ 8.! 0.~ 8.P Z %.K %.K %.Z 0 f a f a f 0 E 8.~ 8.! 8.~ 8.U V %.K %.K %.Z M ` H _ H ` n 0 d a f a f = Z ' K %.e Q Q %.%.",
"p.N 8.t.0.u.0.u.0.u.U G 6.<.6.<.6.G a ^ f / f ^ s =.u.0.u.0.u.0.u.E Z 6.%.6.%.6.G H  .`  .`  .M a ^ f / f ^ 0 K <.<.5.x 3.3.6.6.",
"N ; u P P I b P C I t 9 Z V Z V Z 8 & 0 : 0 : 0 * b P C I C I C P b 8 Z V Z V Z e > N M N M N - & p : : : p O w Z V V % Z Z Z Z ",
"N c N N N M X j u g u u u < V v Z 9 ; B M B N B N N c % Z Z Z V Z V V Z V Z 6 C C C I C I C I 7 w N m m x Z % ; N M M c B - 6 A ",
"} ` ] ] ` ] e +.Y T T T T y *.R %.Z B ..] p.] p.] ..` x <.<.<.%.<.>.%.<.%.<.v 8.0.8.r.8.u.0.t.I F ' K { K { c B ] ` } `  .z C w.",
"] J ] ` J ` e Y Y T Y Y T t @.G %.Z N } ` } ` } ] } J x <.,.,.K %.%.K %.K <.v ! 8.8.0.! r.~ 0.C Z ' J ' J ' z N ` ` ] H ] > b 4.",
"} ` } } ] } 6 +.T O.T T T q *.R *.Z B p.] p.} p.} ..` x 5.<.<.%.<.,.%.<.%.6.v 8.r.0.t.0.t.0.u.C F { ' { ' ,.z N } ] } ` d.z C w.",
"z - 8 e e 8 o r q q < 1 6 # w 6 8 - - > ; z $ w w w ; % e w e % 6 6 - w w w % e e e 9 % e 9 e % ; ; % e 9 e 1 6 w 8 w @ - O o 6 ",
"<.Z E 0.8.0.8.r.8.r.P N { ` ] J ] ` ` ] J ] w Q %.%.>.%.<.K <.x D D m ..` ..`  .] ] ` > } J ` J ` H u t.8.q.0.0.0.0.0.6 f s f f ",
"%.v E 8.! 8.! 0.~ 8.I N ` J ] J ` J J ` J ` w Q K %.%.K %.K %.x A Z N ] ` } ` ] ` ` J z ` H ` H H H v 0.~ 0.! 8.8.! 8.q f a f f ",
"3.C ! t.r.t.8.u.0.t.U F ..] ..` } ] ] } ` ..z <.<.<.<.<.6.%.6.V G G B p.} p.} p. . .} c p.` i.] } ` V u.0.u.0.t.t.0.t.q f f f f ",
"A 9 b I I E I U I E u ; B N B N B N N B N B - Z Z G F Z G Z G 6 u u w H B H N H H H M - H N H N N M 6 E I E I I I I U # p : 0 0 ",
"y q y y y y o c z z w z c z c @ 9 6 7 C b C u C b C u < u q u q u t 9 u q u # e x x x e Z x V 6 4 y q u y u o ; c z c w M $ 2 b ",
"+.T +.+.T T w ] ` ] ] ] ] ` ] z R h U u.0.t.0.u.0.0.! h $.R $.R $.#.@.$.Y $.V %.>.%.<.>.<.%.3.Z j +.T +.Y +.u H } ] } ` } z P t.",
"T Y Y Y Y Y w ` H ` J J ` J ] w D h I 0.! 0.~ 0.! 8.E u @.D @.D R R Y @.D @.u K K K %.K %.K >.V j T Y T Y Y u B ` J ] H } z b 0.",
"+.T +.+.T +.e } ] } ] ] { ] ..w R C E u.r.u.r.u.t.u.~ h $.@.$.@.$.$.$.$.@.$.u %.<.<.<.%.6.%.6.Z k +.T $.T $.u H } ] p.] p.c P u.",
"7 6 q q 7 6 @ z > z ; ; z w w @ 7 # < u t u t u 7 u 9 # q 6 w 6 e 6 < t 7 y o 9 e e 9 6 x 8 e % < 6 < q 6 q o - z ; , $ w # < u ",
"] ` ] ] ` ] J ] ` ] N x %.K %.K %.V y Y j Y j Y q N ` J ] J ] J ] N u 0.E 0.~ 0.~ ~ E 8 J H J H J H z ] ` ] ` ] ] ` ` 6 Y l Y Y ",
"} ] } ] ] } ` } ` } H Z >.K >.K >.Z j Y Y T l T h J { ] } J } ` ] H C 0.~ 0.~ 0.8.8.~ x ` H ] H J H c ..` } ] ] ] ] } w Y Y Y Y ",
"p.} p... .p.} p.} p.J F <.%.3.>.3.G j +.Y +.Y +.j ` ..] p.] p.] ..J P u.0.u.0.t.t.r.0.x } J } ` ] ` M p.} p.} p.p.} p.e +.T +.+.",
"` H J J H ` H ` H ` M x K G K A K x q j j k j l 7 N J H J H J H J M t ~ U E U E E E I - H N H N B N ; ` H ` H J J H J 6 j j j j ",
"q 7 q q q 7 X x e x 8 8 x e x @ w > ; w ; z @ e 8 e x x x # b v b u t b u b 2 w z w z ; z > z $ 3 q 4 q q y + - z z z ; z $ % z ",
"+.T +.+.T O.9 <.%.<.>.>.<.%.3.x ` ` ` } ` } c >.%.<.<.%.<.b t.8.t.r.0.t.8.u.C ` ] ] } ` } ] } N j +.T $.Y $.h J i.] i.] p.z N } ",
"T Y Y Y Y Y e %.K %.K K %.K >.x H H H L H ` z K K Q %.K %.v 8.! 8.8.! 8.! 0.v H J J ` H ` H ] m j Y Y O.Y Y u H ] J ] J ] z M ] ",
"$.+.+.+.+.+.q 3.>.<.<.<.3.>.6.x ] } } i.` i.c <.<.<.<.<.<.b u.r.u.t.t.u.0.u.C ] } } } ] p.] p.N k $.+.$.T $.h J p.} p.} s.c N p.",
"q 7 q q 7 q @ x w x 8 8 x e e @ z ; ; w w z % e e e e 8 e % u e u u t b t i < w w w w - z w z $ 3 q 4 q 7 q o ; z z z - w @ $ w ",
"` J J J J ` H ` H ` M e Q G K G Q V i E E 8.E ! E ! P w J B J B J m u ~ E ! E ! E E U 9 K G K G K G w ] H ` J ` J H ` & p p a a ",
"{ ` ` ` ` ] ` ] ` ] B Z %.K <.K %.Z I r.~ 0.! 0.8.8.U m ] J { J ` B C 0.! r.! 0.8.8.8.v <.K ,.' ' K c ..] } ` ] } ] } : f a f f ",
"..` ] ] ] ..` ..] ] H Z <.%.<.%.<.A I t.8.t.8.t.8.0.E N { ` { ` ] B C r.8.t.8.r.0.0.8.v 5.' ,.>.,.' m p.] p.] } ..} ..> f f f f ",
"` J ` ` ` ` H ` J ] M x %.K %.K %.Z C 8.E 8.! 8.E 8.I z ` J ` H ` N u 0.E 8.! 8.! ! E e %.K %.K ' K z ] ` ] ` ] ` ` ] - a a a a ",
"6 # 7 u e u e u 9 v # @ z ; z @ * & & 5 * 6 . 8 8 w w ; z @ 8 w e 8 6 x 9 e o 9 e e e 6 e 8 e % < 7 < q 6 q o 8 x w x - w @ o t ",
") u E t.0.u.0.u.0.u.U N ..] p.w f f f f f ^ - ] ] } } } } c <.%.<.<.<.<.%.5.x %.,.%.<.%.<.%.<.Z j +.Y +.T $.y G <.>.6.>.6.x P t.",
"D q U 8.~ 0.! 0.~ 8.P N ] J } > a d d f a f - H H L ` J ` z %.K %.%.K %.K %.x K K K ' K %.K %.v j Y Y T Y Y q F %.K <.Q g.x b 0.",
") h ! u.r.u.r.u.r.u.U B p.} p.w f f f / f / : } ] } i.} p.c <.<.5.<.<.6.>.6.V ,.,.,.5.%.5.>.5.Z k +.T $.T $.u K 5.<.f.h.j.W I u.",
"e # u C b C u C b C 9 ; M z M O = = * 0 = 0 . z z c c z M @ e e x e e V x x % x x x x 8 v e x 6 4 y q y q u o 8 V x m x W 1 2 C ",
"B M B N N N % G Z G Z Z G Z G - s 6 u E I E P E I U b & p : p 0 p = w F Z F N F F Z N # j j j j j g 6 G Z G Z F F Z Z - B N B B ",
"} ` ] ] ` ` z <.%.<.<.%.<.%.<.e F m I t.8.u.0.t.0.0.E 0 f f f f f p m ..' <.' { { { ' q +.Y +.Y +.Y e <.%.<.%.,.,.%.,.z ] ` ] ] "
};
