/* XPM */
static char *east[] = {
"64 64 5 1",
". c #FFF5EE",
"# c #FFE4E1",
"+ c #FFB6C1",
"@ c #DDA0DD",
"= c #E6E6FA",
"................................................................",
"................................................................",
"..++....++....++....++....++....++....++....++....++....++....++",
"..++....++....++....++....++....++....++....++....++....++....++",
"................................................................",
"....@@....@@....@@....@@....@@....@@....@@....@@....@@....@@....",
"....@@....@@....@@....@@....@@....@@....@@....@@....@@....@@....",
"................................................................",
"................................................................",
"..++....++....++....++....++....++....++....++....++....++....++",
"..++....++....++....++....++....++....++....++....++....++....++",
"................................................................",
"....@@....@@....@@....@@....@@....@@....@@....@@....@@....@@....",
"....@@....@@....@@....@@....@@....@@....@@....@@....@@....@@....",
"................................................................",
"................................................................",
"..++....++....++....++....++....++....++....++....++....++....++",
"..++....++....++....++....++....++....++....++....++....++....++",
"................................................................",
"....@@....@@....@@....@@....@@....@@....@@....@@....@@....@@....",
"....@@....@@....@@....@@....@@....@@....@@....@@....@@....@@....",
"................................................................",
"................................................................",
"..++....++....++....++....++....++....++....++....++....++....++",
"..++....++....++....++....++....++....++....++....++....++....++",
"................................................................",
"....@@....@@....@@....@@....@@....@@....@@....@@....@@....@@....",
"....@@....@@....@@....@@....@@....@@....@@....@@....@@....@@....",
"................................................................",
"................................................................",
"..++....++....++....++....++....++....++....++....++....++....++",
"..++....++....++....++....++....++....++....++....++....++....++",
"................................................................",
"....@@....@@....@@....@@....@@....@@....@@....@@....@@....@@....",
"....@@....@@....@@....@@....@@....@@....@@....@@....@@....@@....",
"................................................................",
"................................................................",
"..++....++....++....++....++....++....++....++....++....++....++",
"..++....++....++....++....++....++....++....++....++....++....++",
"................................................................",
"....@@....@@....@@....@@....@@....@@....@@....@@....@@....@@....",
"....@@....@@....@@....@@....@@....@@....@@....@@....@@....@@....",
"................................................................",
"................................................................",
"..++....++....++....++....++....++....++....++....++....++....++",
"..++....++....++....++....++....++....++....++....++....++....++",
"................................................................",
"....@@....@@....@@....@@....@@....@@....@@....@@....@@....@@....",
"....@@....@@....@@....@@....@@....@@....@@....@@....@@....@@....",
"................................................................",
"................................................................",
"..++....++....++....++....++....++....++....++....++....++....++",
"..++....++....++....++....++....++....++....++....++....++....++",
"................................................................",
"....@@....@@....@@....@@....@@....@@....@@....@@....@@....@@....",
"....@@....@@....@@....@@....@@....@@....@@....@@....@@....@@....",
"................................................................",
"................................................................",
"..++....++....++....++....++....++....++....++....++....++....++",
"..++....++....++....++....++....++....++....++....++....++....++",
"................................................................",
"....@@....@@....@@....@@....@@....@@....@@....@@....@@....@@....",
"....@@....@@....@@....@@....@@....@@....@@....@@....@@....@@....",
"................................................................",
"................................................................"
};
