/* XPM */
static char *north[] = {
"64 64 6 1",
". c #D2B48C",
"# c #DEB887",
"+ c #F5DEB3",
"@ c #CD853F",
"= c #8B7355",
"- c #A0826D",
"................................................................",
"##++##++##++##++##++##++##++##++##++##++##++##++##++##++##++##++",
"##++##++##++##++##++##++##++##++##++##++##++##++##++##++##++##++",
"==--==--==--==--==--==--==--==--==--==--==--==--==--==--==--==--",
"................................................................",
"##++##++##++##++##++##++##++##++##++##++##++##++##++##++##++##++",
"##++##++##++##++##++##++##++##++##++##++##++##++##++##++##++##++",
"==--==--==--==--==--==--==--==--==--==--==--==--==--==--==--==--",
"................................................................",
"##++##++##++##++##++##++##++##++##++##++##++##++##++##++##++##++",
"##++##++##++##++##++##++##++##++##++##++##++##++##++##++##++##++",
"==--==--==--==--==--==--==--==--==--==--==--==--==--==--==--==--",
"................................................................",
"##++##++##++##++##++##++##++##++##++##++##++##++##++##++##++##++",
"##++##++##++##++##++##++##++##++##++##++##++##++##++##++##++##++",
"==--==--==--==--==--==--==--==--==--==--==--==--==--==--==--==--",
"................................................................",
"##++##++##++##++##++##++##++##++##++##++##++##++##++##++##++##++",
"##++##++##++##++##++##++##++##++##++##++##++##++##++##++##++##++",
"==--==--==--==--==--==--==--==--==--==--==--==--==--==--==--==--",
"................................................................",
"##++##++##++##++##++##++##++##++##++##++##++##++##++##++##++##++",
"##++##++##++##++##++##++##++##++##++##++##++##++##++##++##++##++",
"==--==--==--==--==--==--==--==--==--==--==--==--==--==--==--==--",
"................................................................",
"##++##++##++##++##++##++##++##++##++##++##++##++##++##++##++##++",
"##++##++##++##++##++##++##++##++##++##++##++##++##++##++##++##++",
"==--==--==--==--==--==--==--==--==--==--==--==--==--==--==--==--",
"................................................................",
"##++##++##++##++##++##++##++##++##++##++##++##++##++##++##++##++",
"##++##++##++##++##++##++##++##++##++##++##++##++##++##++##++##++",
"==--==--==--==--==--==--==--==--==--==--==--==--==--==--==--==--",
"................................................................",
"##++##++##++##++##++##++##++##++##++##++##++##++##++##++##++##++",
"##++##++##++##++##++##++##++##++##++##++##++##++##++##++##++##++",
"==--==--==--==--==--==--==--==--==--==--==--==--==--==--==--==--",
"................................................................",
"##++##++##++##++##++##++##++##++##++##++##++##++##++##++##++##++",
"##++##++##++##++##++##++##++##++##++##++##++##++##++##++##++##++",
"==--==--==--==--==--==--==--==--==--==--==--==--==--==--==--==--",
"................................................................",
"##++##++##++##++##++##++##++##++##++##++##++##++##++##++##++##++",
"##++##++##++##++##++##++##++##++##++##++##++##++##++##++##++##++",
"==--==--==--==--==--==--==--==--==--==--==--==--==--==--==--==--",
"................................................................",
"##++##++##++##++##++##++##++##++##++##++##++##++##++##++##++##++",
"##++##++##++##++##++##++##++##++##++##++##++##++##++##++##++##++",
"==--==--==--==--==--==--==--==--==--==--==--==--==--==--==--==--",
"................................................................",
"##++##++##++##++##++##++##++##++##++##++##++##++##++##++##++##++",
"##++##++##++##++##++##++##++##++##++##++##++##++##++##++##++##++",
"==--==--==--==--==--==--==--==--==--==--==--==--==--==--==--==--",
"................................................................",
"##++##++##++##++##++##++##++##++##++##++##++##++##++##++##++##++",
"##++##++##++##++##++##++##++##++##++##++##++##++##++##++##++##++",
"==--==--==--==--==--==--==--==--==--==--==--==--==--==--==--==--",
"................................................................",
"##++##++##++##++##++##++##++##++##++##++##++##++##++##++##++##++",
"##++##++##++##++##++##++##++##++##++##++##++##++##++##++##++##++",
"==--==--==--==--==--==--==--==--==--==--==--==--==--==--==--==--",
"................................................................",
"##++##++##++##++##++##++##++##++##++##++##++##++##++##++##++##++",
"##++##++##++##++##++##++##++##++##++##++##++##++##++##++##++##++",
"==--==--==--==--==--==--==--==--==--==--==--==--==--==--==--==--",
"................................................................"
};
