/* XPM */
static char *c7dcfae29cfb48cad57ff0415b292f89l8cvF1NktGpjGUDt[] = {
/* columns rows colors chars-per-pixel */
"64 64 231 2 ",
"   c #1B1A2D",
".  c #1C1E31",
"X  c #221F35",
"o  c #1D2135",
"O  c #1E243A",
"+  c #1F2D3D",
"@  c #1F303E",
"#  c #24243C",
"$  c #26273C",
"%  c #2B243E",
"&  c #30283F",
"*  c #20303F",
"=  c #232740",
"-  c #2C2542",
";  c #242B43",
":  c #2C2A45",
">  c #2E2649",
",  c #262E4A",
"<  c #2D2C4B",
"1  c #312742",
"2  c #332A45",
"3  c #31274D",
"4  c #342B4C",
"5  c #3A2D4D",
"6  c #26344A",
"7  c #2B324C",
"8  c #33324D",
"9  c #3B324D",
"0  c #3A384E",
"q  c #2E2F50",
"w  c #352C52",
"e  c #3A2E53",
"r  c #3C2F5A",
"t  c #2C3351",
"y  c #253951",
"u  c #2C3B54",
"i  c #2C3B5A",
"p  c #343453",
"a  c #3C3255",
"s  c #363956",
"d  c #3E3A55",
"f  c #36355B",
"g  c #3D335B",
"h  c #343C5C",
"j  c #3B3A5C",
"k  c #3E3462",
"l  c #343E61",
"z  c #3C3C62",
"x  c #3F3869",
"c  c #43344F",
"v  c #423455",
"b  c #493656",
"n  c #483955",
"m  c #43345C",
"M  c #49375C",
"N  c #443B5D",
"B  c #4C3A5D",
"V  c #533D5C",
"C  c #443563",
"Z  c #493763",
"A  c #453A63",
"S  c #4B3A64",
"D  c #43366A",
"F  c #4A376A",
"G  c #433A6B",
"H  c #4C3C6A",
"J  c #523C64",
"K  c #533E6C",
"L  c #593E6B",
"P  c #4D3D71",
"I  c #533E71",
"U  c #5B3F75",
"Y  c #2A4454",
"T  c #2C4759",
"R  c #33425C",
"E  c #34485C",
"W  c #354263",
"Q  c #3B4264",
"!  c #364C63",
"~  c #394C65",
"^  c #3C4469",
"/  c #37496A",
"(  c #3B4B6C",
")  c #2E5867",
"_  c #315565",
"`  c #365669",
"'  c #39556D",
"]  c #3D4D71",
"[  c #2F5A74",
"{  c #3D5471",
"}  c #385B72",
"|  c #3B6477",
" . c #42445A",
".. c #434365",
"X. c #4A4464",
"o. c #434469",
"O. c #4C436C",
"+. c #44496D",
"@. c #4B4A6D",
"#. c #534265",
"$. c #5B4163",
"%. c #54426D",
"&. c #5B436C",
"*. c #51496F",
"=. c #5D4A6B",
"-. c #5E506E",
";. c #474776",
":. c #4C4473",
">. c #444B71",
",. c #4D4B73",
"<. c #4B4779",
"1. c #4D4A7A",
"2. c #534273",
"3. c #5B4473",
"4. c #534C73",
"5. c #594874",
"6. c #5C457B",
"7. c #534D7B",
"8. c #5D497A",
"9. c #425575",
"0. c #4B5273",
"q. c #45547A",
"w. c #47577A",
"e. c #4C597B",
"r. c #525176",
"t. c #5F5171",
"y. c #54517C",
"u. c #51597E",
"i. c #61456C",
"p. c #67496B",
"a. c #654A6D",
"s. c #60516F",
"d. c #614674",
"f. c #644A74",
"g. c #6B4D74",
"h. c #61467B",
"j. c #634B7B",
"k. c #6B4D7A",
"l. c #704E7B",
"z. c #635273",
"x. c #6D5376",
"c. c #6D527C",
"v. c #66597C",
"b. c #715273",
"n. c #72537D",
"m. c #76577D",
"M. c #42647D",
"N. c #5B667F",
"B. c #66666E",
"V. c #6A6B76",
"C. c #3D6E84",
"Z. c #3E7188",
"A. c #5D4981",
"S. c #4E5B84",
"D. c #5B5782",
"F. c #535B86",
"G. c #5C5984",
"H. c #545F88",
"J. c #624A83",
"K. c #6D4C83",
"L. c #724E83",
"P. c #714F89",
"I. c #6D5283",
"U. c #6D528A",
"Y. c #695988",
"T. c #725384",
"R. c #7B5684",
"E. c #745983",
"W. c #7B5A85",
"Q. c #735389",
"!. c #785489",
"~. c #755D8A",
"^. c #7C5B8A",
"/. c #6B5C90",
"(. c #7A5891",
"). c #7B5B94",
"_. c #466483",
"`. c #4A6384",
"'. c #496786",
"]. c #496985",
"[. c #58668B",
"{. c #477D8B",
"}. c #477D93",
"|. c #4A7D94",
" X c #547E96",
".X c #6B6687",
"XX c #716787",
"oX c #73638B",
"OX c #7C628C",
"+X c #746A8A",
"@X c #7A6A8E",
"#X c #637088",
"$X c #656892",
"%X c #736395",
"&X c #7C6391",
"*X c #7D6C93",
"=X c #766699",
"-X c #786898",
";X c #697398",
":X c #7B7595",
">X c #76759A",
",X c #7A75A2",
"<X c #777CA1",
"1X c #815B86",
"2X c #845D88",
"3X c #855E94",
"4X c #895F96",
"5X c #816386",
"6X c #87658C",
"7X c #8A638D",
"8X c #846295",
"9X c #8D6695",
"0X c #806E95",
"qX c #8E6895",
"wX c #836499",
"eX c #8B6399",
"rX c #846B9C",
"tX c #896D9B",
"yX c #8B729C",
"uX c #8576A1",
"iX c #3E818F",
"pX c #3F8290",
"aX c #46818D",
"sX c #4A8894",
"dX c #558899",
"fX c #46929C",
"gX c #49929D",
"hX c #7589A7",
"jX c #7D8EAB",
"kX c #7C90AD",
"lX c #A39AB4",
/* pixels */
": # ; - - : j v N +.d : S j u o 1 #XXXn.9 : p.2 $.qX:X=.g.R.j.9 : # : - - : j m N +.d : Z j u O 1 #XXXx.5 : i.1 $.qX:X=.x.E.j.5 ",
"t W h w 3 W `.K :.|.+.p 2.1.<.< N hXjXwXK @.7XX.k.>XjX;Xf.&X%Xg t W h w 3 W `.I O.}.+.p P <.;.: N >XhX&XS O.2X..k.>XjX>Xd.).%Xv ",
", q w 4 3 W 7.2.O.'.A # C H A p O.%X*X8.C X.W.v &.@X:XXXJ T.j.w ; w w w < W 7.2.H `.j # C G C p O.%XOXd.m X.R.v &.*X:XXXJ I.d.5 ",
"m J L i.b u e.5.2.7.A J 5.5 g H A 7.S g - 6 s - m K S H S S M 2 a J K i.v u e.2.:.1.m B &.e g H A 7.S m - t s % N K S S H S B 1 ",
"&.3.S 3.J H >.A H H m S S 2 C a < C C e . # ; O j ^ G G G k 2 , %.3.Z 3.L O.+.A F H a S C 2 C a < C C e   # ; # j ^ G D D g 5 , ",
"p.l.&.v 2 2.m R : 8 5 e 2 g.x.n j S p ; < H a ; < h W < t q X ; =.g.$.g 5 K m R : 8 5 a 5 a.x.n j H s ; 3 Z a ; < l W 3 < < X * ",
"c.=XwX8.j 8.F.y.A +.o.Q n 3XeXn.C 1.{ / A I.E.e k S.'.H C D ^ # d.%XwX3.s 7.F.7.A >.o.^ V 3X4Xn.C <.( ! A T.E.a C H.'.K C D W # ",
"E.,X%X2.s :.|.].m H H 9.-.9XtXI.: i w.aXh f.n...m >.|.2.Z D G 3 g.,X).K s 2.}.].Z H H 9.s.qXtXk.: i 9.{.h f.n.o.C >. X6.C D G w ",
"f.&XI.b 2 H | ' 3 - v 4.#.9XuXk.w f { fX~ Z H N k.w.sXe.H D e w &.^.k.B 3 H M.{ 3 - v *.#.9XrXj.w f { gX~ C K N k.e.dXu.A D r e ",
"Z G.h.3.z H._.| l 7 g 2.C Q.).%.e P Q [ f I J.v A {.iX9.G C r w v D.h.3.Q [.].| W 7 g 2.m K.(.%.w P ..[ f 2.8.v A C.iXw.C C k g ",
"v %.H a p @.+.E u j 5 e a 8.j.5 % m j y - K M 5 y _ ! ! g v a - 5 2.K e p ,.@.E u N 5 e e 3.d.5 # m z 6 % K m 4 y _ ! ~ g g g 4 ",
"s O.O.A H j.8.A b !.6Xx.d B v a e ..j H d.L.R.R.5 $.T.I.I.R.R.&.s O.O.A H j.j.A b !.7Xb.d M v a e ..j O.d.K.R.R.9 $.T.I.I.R.R.f.",
"h o.@.Z 3.~.8.S m.wX*XW.J P C p g ^ C F 3.K.T.K.9 f.P.6.I 2.%.Z Q Q @.A 3.^.h.Z m.wX*XW.J K C p g Q g Z I J.T.K.9 f.Q.A.2.%.%.K ",
"N I.z.< Z K 3.m T.oX=.#.Z A z 3 v ] j 2.m K 6.I 8 v P C K h.5.p g I.t.< S 2.6.Z T.oXf.J Z C z 3 g ] j :.m K 6.I 8 N 2.H %.j.5.d ",
"#.XX0.t Z m K v ^.oX!.U.A 7 ) 7 < Y } $X2.e S a : 8 9 S K.Y.;XO.B @X4.< Z m %.M OXY.R.I.N 7 ) 7 < Y } $X2.e S a ; 4 0 S U./.;X4.",
"d B.R - r C K b b S L Z : . @ . O T ` r.,.A Z m 1 N 9 5 S ,.O.5 a B. .- g Z K b b B L B # o @ . = Y _ y.4.C S m 1 A 9 5 S @.O.a ",
": : ; - - : f e v o.a : m p , O : [..Xg.5 : $.1 V 5X+XX.i.k.%.2 : % # - - : j e g +.a - A p , O 2 N.v.g.a : $.2 V 5X+XX.&.k.%.4 ",
"7 l h 3 3 R `.K O.|.>.p P <.:.< A <XkXrXS X.7X..k.uXjX>Xd.).%Xg , l h 3 3 R `.I :.|.+.p P <.<.< N <XkXwXH O.7XX.k.,XjX+X3.).%XN ",
", < 3 3 > W 1.I O.'.A # g D C < O.%X&X8.C X.W.v &.@X:XXXS K.d.5 ; < 3 3 > W 1.2.O._.A X g F Z p O.%X&Xj.C @.W.v &.@X:XXXJ k.3.e ",
"m J J i.b u w.2.2.7.C S %.5 g H j y.K r - t p - N H J S A S M - a J K i.b u w.5.:.7.C J &.5 m S A y.H g - 6 j - m S S S F C M 1 ",
"&.L Z 3.J H ( A H F r Z A 4 m g : m C e   O , ; j ^ G D D f 4 ; %.3.S 3.S O.+.A S F m S H 2 m v : C A e   # ; O j ^ G C x f 2 , ",
"a.x.&.a 4 H g R : 8 5 a 4 g.g.c j F p # < A g ; < h R e p < X ; =.k.&.v 4 I m R : p 5 a 2 g.g.n k H p ; < C p ; : h W w t < X ; ",
"c.=XwX8.s 1.S.;.j +.o.^ V 4XeXn.C ;.( W A I.n.a Z H.[.K m D ^ # f.=XwXj.j 7.F.7.A >.o.Q B 3XeXn.C ;.( / z I.E.a C H.].%.j x W # ",
"E.,X=X5.s :.}._.m S A 9.t.9XtXc.: i 9.{.h &.n.o.Z 0. X6.Z G D 3 x.,X%X2.s :.|.].m S S 9.-.9XtXc.< i w.{.s f.x.o.B 0.dX6.C D x 3 ",
"f.&XI.b 2 A | ' > # a O.J qXyXj.w f ' fX! m 2.N g.0.sXu.H C e 3 &.OXI.B 2 G M.' 3 % a O.#.9XrXf.w f { fX~ Z %.N k.0.dXu.Z C w w ",
"Z G.6.I z S.M.} h t a I Z T.(.%.4 F Q [ f 2.6.a A Z.pX9.C C g w a D.h.3.Q H.'.| l 7 a 2.m K.(.K w I o.[ j 2.A.v A C.aXw.C g r r ",
"v %.H a 7 o.o.T u A 5 v a 3.3.5 # g j 6 % K M 5 y _ ! ! d v e - e 2.H a p ,.+.E u N 5 e e 3.d.5 % m z y - K B 5 y _ ! ~ g a e 3 ",
"j O.O.G H j.8.A b !.9Xb.a M v 5 5 ..s O.i.L.R.R.4 J T.I.I.R.R.&.a *.H A H k.8.m b !.7Xb.d B v 5 e ..s O.d.L.1XR.4 $.T.I.c.R.R.f.",
"Q o.@.m 3.^.h.Z m.eX*XW.J H C p e Q k C K K.T.K.5 f.U.A.:.2.3.B h +.@.A 3.Q.8.Z n.8X0X5XL K A p a / C Z 2.K.Q.I.5 f.U.6.F %.3.J ",
"A c.z.< C 2.3.Z R.&X&.S Z C f 3 a ( f P m K 6.K 4 v :.A K h.5.a m T.z.< S K I Z E.~.&.S S A z w g ( j :.C K 6.2.p v :.A K h.5.g ",
"#.+X4.p Z m %.B OXoX!.I.N 7 ) 7 : u { [.2.5 S g : 8 9 S K.Y.;XO.S @Xr.p F m K M ^.oXR.K.Z 8 ) 7 q u ' $X5.e S g 7 4 0 S U./.;Xr.",
"d B.d > g C %.B b S &.B ; o @ . # Y ~ r.,.A F v 2 N 9 5 S 4.O.4 d B. .- g Z %.B B S &.B # . *   # T ` r.,.A F m 2 A 9 4 K 4.O.e ",
": # # - - : p e m ..a : A p , o & N.v.p.5 : $.1 V 5X+X#.$.k.&.4 : # ; - - : s e m ..a - m a 7 O : N.v.p.5 4 $.& V 5X.X#.p.c.5.4 ",
"7 l h 3 3 R `.H O.|.+.p P <.;.: v ;XhX&XZ X.7X..f.,XkX>Xd.(.%Xd , l h w 3 R `.K O.|.+.8 P 1.;.< N >XhX&XS X.2XX.k.>XjX>Xf.).=XN ",
", < w 3 > h 2.2.H `.A X m F Z 4 H /.E.L m X.R.v #.@X:X+XJ K.3.w ; < w 3 > l 4.2.G `.A # m H Z 4 O.%X~.d.m X.W.v #.@X:XXXJ K.j.e ",
"m J K d.b t w.5.2.1.C S %.5 g A j 1.Z e - 7 p - m S S H H H M - a J L i.b u w.5.2.7.C J &.4 r S N 7.S r - 6 8 % N K S S H S m - ",
"&.3.S 3.J O.>.A H F e C A 2 m a : m C w   o ; ; j Q G G G k 4 ; #.3.S 3.J H +.A H H a S S 4 m a < C A e   # ; # j ^ G G D f 2 , ",
"p.x.&.a 4 %.m R : 8 5 5 2 g.g.c k H s ; : C a # - h W w q < . * =.k.&.v 4 K A R : p 5 e 2 g.g.c z K f ; < C w ; : h W 4 < < . + ",
"c.=XwXj.s 7.F.y.A +.o.Q B 3X4Xn.C ;.] / z I.c.a C H.[.K g x W # g.=XwXj.j 7.F.7.A >.o.Q B 8XeXn.Z 1.] ! z I.I.e C H.[.K m D W # ",
"E.,X=X2.s :.|.'.m S S 9.z.9XtXc.: i 9.{.h &.x...m >. X5.C D D 3 x.,X%X2.s :.|.].m S H 9.z.9XtXc.< i w.{.h 3.x...m 0.dX8.Z D G 3 ",
"g.8XT.B 2 H | ` 3 # a *.J qXtXk.p f ' fX! m 2.N g.0.sXu.A C e w &.OXT.B 4 2._.' 3 % a 4.#.9XtXf.w g { fX~ C %.N k.e.dXF.A C r w ",
"Z Y.h.3.Q S.M.| h < g 2.m I.).%.4 P o.[ p 2.A.a ..C.Z.9.C k g e v G.h.3.^ [.].| h p g 2.m T.(.%.w P ..[ j 2.J.v A Z.aXw.Z C r r ",
"v 3.H a 8 +.o.T y N 5 a a 3.3.5 % g j y % K m 4 y _ ! W d v a - 5 3.H a p ,.>.E u N 5 e a 3.d.5 % m z u % %.B 8 y _ ~ ~ g a e 3 ",
"j 5.O.A H h.5.C b !.6Xb.d B v 5 e ..s S &.l.1XR.5 $.T.I.I.R.R.&.s *.O.H H h.5.A b R.7Xb.d B v 5 e ..s S i.T.1XR.9 $.T.I.I.R.W.f.",
"h +.,.A 2.~.3.N m.wX*XW.J I A f a Q C Z K K.L.K.9 f.P.6.F K %.Z h ..@.A 3.!.3.B m.3X*X5XJ H C p a ^ j C L K.!.L.9 f.U.A.2.%.3.K ",
"N c.z.< S K 2.M E.~.&.J Z A z w a / s 2.m K U K 4 v P C K d.5.p g n.f.< Z K I m E.~.&.J S m f w g / s :.m K h.3.4 v 2.A K d.5.s ",
"#.+X,.7 Z m K v OXoXR.K.A 7 ) 7 < u ' $X2.5 Z a : 8 9 S K.Y.;XO.B +X,.< Z g S v W.Y.R.K.m 7 ) , < Y } [.*.5 S d : 8 0 B Q./.;X4.",
"a B. .- g C K M b B L B = . @ . O Y ` ,.,.m m m 1 N 9 5 S 4.O.5 a B. .- e C J b b B L B # . * . O Y ~ r.,.C Z m 2 A 9 5 J ,.@.e ",
": - ; - - : j a v ..a % m p 7 o : N.v.p.5 : $.1 V 5X+XX.i.k.%.4 : % # - - : f e m o.a % m p , O 2 N.v.p.5 : $.1 V 5X+X#.i.k.5.2 ",
"t l h 3 3 R `.U O.|.+.8 F <.:.: N <XhX).Z ..7X .k.,XjX>Xd.).%Xv , l h w w R `.I H |.+.p F <.;.: N <XhX&XS ..2XX.c.,XjX>Xf.).%Xd ",
", < 3 3 > W 7.2.H `.A # g D C < A %X~.K g X.R.b &.oX:XXXB K.d.e ; w w 3 < W <.2.O.`.A # r G Z 4 S %X~.&.m X.W.v &.@X:X+XJ I.d.e ",
"m J L &.b u w.2.2.7.C J 3.4 r H A 7.H r - y s - v S S S F Z b : a J K d.b u w.2.:.7.C J 3.5 g H A 4.S e - 6 s - m S S H S Z b - ",
"&.3.Z 3.J S ^ A S H g Z S 4 m m < C C e   # ; O j z D D x f 2 ; %.3.Z 3.J S ( A F H m S S 4 m v : m C e   o ; = j ^ G D D f 4 ; ",
"g.x.&.a 4 K m Q < 8 e e 2 g.b.n j F p ; 3 S a ; : h W 4 t < . ; a.x.&.v 2 K g R : p 5 e 2 g.l.n j S p = < C w ; : W Q w q < . + ",
"T.=X-X8.s 7.F.y.O.>.o.^ B 3XeXn.Z <.] ' G T.E.a k S.`.K g x ^ % f.-XrX8.s 7.F.7.A >.o.Q B 8XeXn.C ;.( ! z I.T.a C H.[.I C x W # ",
"W.,X=X2.f :.|.'.m S S w.z.9XyXI.: i w.aXh f.n...m +. X6.C D D > x.,X%X2.f :.|.].m S S 9.t.qXyXc.: i w.aXh f.n...M 0.dX8.C D D 3 ",
"f.^.I.B 2 H _.' 3 % a *.#.qXyXk.4 f { fX~ Z %.N k.e.sXe.G C w 4 &.&XI.B 2 H '.' 3 - m *.#.qXtXk.w f 9.gX~ C K N k.e.dXu.Z D e w ",
"m G.6.I Q H.M.| l < a 2.C T.).3.e I o.[ f 2.J.v A Z.pX{ A C r w m G.h.3.Q H._.| l < a 2.Z T.(.3.e I o.[ f I A.v A Z.sXw.Z C r r ",
"e K H e p @.o.T u N 5 a g 3.j.a % C z u 1 K M 5 y _ ! ! d v m - 5 3.F e 8 @.+.E u N 9 g a 5.d.a % m z u & K M 4 y _ ! ( v v a 3 ",
"j O.H O.H j.5.A b ^.7Xb.d B v 9 e +.j S d.L.1XR.9 J T.I.I.R.^.i.a H H A S 8.5.A B ^.7Xb.v B v 9 e +.j S d.L.1XR.2 $.T.~.yX2XW.g.",
"R o.O.A 3.!.j.Z m.eX*XW.J H C p a Q C Z L K.T.K.5 f.K.6.H K 3.S h Q @.A 3.!.5.N W.tX*X1XL K A p a / C Z I K.T.K.5 f.Q.*XlX*X3.J ",
"N c.z.< A %.3.C T.oXf.#.B g j w a ( j 5.m K h.I 4 v P C K d.5.p v T.z.< Z %.2.Z E.oXf.%.M g j w g ] j 2.m K 6.I 8 v :.O.@Xc.3.d ",
"%.XX@.< Z m K M ^.oXR.K.S 8 ) 7 < Y } [.2.e Z a : < 9 B L.Y.;XO.S +Xr.< C m %.M OXXX^.I.S 7 ) , q Y { [.2.e Z d 7 8 9 S K.Y.;X4.",
"N V. .> C H 3.#.J K &.K : O 6 o ; T ` G.D.K K S 5 A 9 e K 4.4.e d V. .< m H 8.#.#.%.f.%.: o ; . ; T ` G.D.H K Z 2 A 9 e K 4.4.a "
};
