/* XPM */
static char *south[] = {
"64 64 8 1",
". c #FFE4E1",
"# c #FFB6C1",
"+ c #FFC0CB",
"@ c #FF69B4",
"= c #90EE90",
"- c #98FB98",
"; c #FFFF99",
": c #FFE4B5",
"................................................................",
"................................................................",
"....##......##......##......##......##......##......##......##..",
"...#@@#....#@@#....#@@#....#@@#....#@@#....#@@#....#@@#....#@@#.",
"...#@@#....#@@#....#@@#....#@@#....#@@#....#@@#....#@@#....#@@#.",
"....##==....##==....##==....##==....##==....##==....##==....##==",
"......==......==......==......==......==......==......==......==",
"................................................................",
"................................................................",
"................................................................",
"....##......##......##......##......##......##......##......##..",
"...#@@#....#@@#....#@@#....#@@#....#@@#....#@@#....#@@#....#@@#.",
"...#@@#....#@@#....#@@#....#@@#....#@@#....#@@#....#@@#....#@@#.",
"....##==....##==....##==....##==....##==....##==....##==....##==",
"......==......==......==......==......==......==......==......==",
"................................................................",
"................................................................",
"................................................................",
"....##......##......##......##......##......##......##......##..",
"...#@@#....#@@#....#@@#....#@@#....#@@#....#@@#....#@@#....#@@#.",
"...#@@#....#@@#....#@@#....#@@#....#@@#....#@@#....#@@#....#@@#.",
"....##==....##==....##==....##==....##==....##==....##==....##==",
"......==......==......==......==......==......==......==......==",
"................................................................",
"................................................................",
"................................................................",
"....##......##......##......##......##......##......##......##..",
"...#@@#....#@@#....#@@#....#@@#....#@@#....#@@#....#@@#....#@@#.",
"...#@@#....#@@#....#@@#....#@@#....#@@#....#@@#....#@@#....#@@#.",
"....##==....##==....##==....##==....##==....##==....##==....##==",
"......==......==......==......==......==......==......==......==",
"................................................................",
"................................................................",
"................................................................",
"....##......##......##......##......##......##......##......##..",
"...#@@#....#@@#....#@@#....#@@#....#@@#....#@@#....#@@#....#@@#.",
"...#@@#....#@@#....#@@#....#@@#....#@@#....#@@#....#@@#....#@@#.",
"....##==....##==....##==....##==....##==....##==....##==....##==",
"......==......==......==......==......==......==......==......==",
"................................................................",
"................................................................",
"................................................................",
"....##......##......##......##......##......##......##......##..",
"...#@@#....#@@#....#@@#....#@@#....#@@#....#@@#....#@@#....#@@#.",
"...#@@#....#@@#....#@@#....#@@#....#@@#....#@@#....#@@#....#@@#.",
"....##==....##==....##==....##==....##==....##==....##==....##==",
"......==......==......==......==......==......==......==......==",
"................................................................",
"................................................................",
"................................................................",
"....##......##......##......##......##......##......##......##..",
"...#@@#....#@@#....#@@#....#@@#....#@@#....#@@#....#@@#....#@@#.",
"...#@@#....#@@#....#@@#....#@@#....#@@#....#@@#....#@@#....#@@#.",
"....##==....##==....##==....##==....##==....##==....##==....##==",
"......==......==......==......==......==......==......==......==",
"................................................................",
"................................................................",
"................................................................",
"....##......##......##......##......##......##......##......##..",
"...#@@#....#@@#....#@@#....#@@#....#@@#....#@@#....#@@#....#@@#.",
"...#@@#....#@@#....#@@#....#@@#....#@@#....#@@#....#@@#....#@@#.",
"....##==....##==....##==....##==....##==....##==....##==....##==",
"......==......==......==......==......==......==......==......==",
"................................................................",
"................................................................"
};
