/* XPM */
static char *_ee77973324e46b8ad3525351a62851aZuKYpT1dKTJdppQQ[] = {
/* columns rows colors chars-per-pixel */
"64 64 179 2 ",
"   c #2E357E",
".  c #31387F",
"X  c #2D3781",
"o  c #2E3C82",
"O  c #303780",
"+  c #303C82",
"@  c #323F88",
"#  c #383F8A",
"$  c #2E4183",
"%  c #2F4E85",
"&  c #314485",
"*  c #314A86",
"=  c #36448A",
"-  c #3A448B",
";  c #354B8A",
":  c #394B8D",
">  c #2C5487",
",  c #285F85",
"<  c #2D5589",
"1  c #2E5D8A",
"2  c #315386",
"3  c #325987",
"4  c #33538B",
"5  c #39528E",
"6  c #345B8C",
"7  c #3A5B8E",
"8  c #3E4791",
"9  c #3E4C92",
"0  c #3F4E99",
"q  c #355390",
"w  c #3D5392",
"e  c #365D92",
"r  c #3C5B93",
"t  c #3E519C",
"y  c #395C98",
"u  c #296285",
"i  c #2E628B",
"p  c #34628D",
"a  c #3B628F",
"s  c #336B8F",
"d  c #38688F",
"f  c #366291",
"g  c #3A6492",
"h  c #356C92",
"j  c #3C6B94",
"k  c #3D6C98",
"l  c #367193",
"z  c #3A7295",
"x  c #3A7897",
"c  c #3B749A",
"v  c #3A7899",
"b  c #414D94",
"n  c #424E9B",
"m  c #425295",
"M  c #485797",
"N  c #415D96",
"B  c #44529A",
"V  c #49569A",
"C  c #435D99",
"Z  c #4A5B9C",
"A  c #416197",
"S  c #406C94",
"D  c #45639B",
"F  c #48619E",
"G  c #446D9A",
"H  c #49689D",
"J  c #417196",
"K  c #42749E",
"L  c #457E9F",
"P  c #4E47A6",
"I  c #4F4AA5",
"U  c #5047A7",
"Y  c #504BA6",
"T  c #524BAA",
"R  c #4755A1",
"E  c #4C56A3",
"W  c #4E59A3",
"Q  c #5151A6",
"!  c #505AA3",
"~  c #5250A8",
"^  c #5A55AF",
"/  c #5B5CAD",
"(  c #564AB2",
")  c #5F4BB8",
"_  c #5B55B3",
"`  c #5D59B4",
"'  c #5E5AB9",
"]  c #6058B4",
"[  c #615ABA",
"{  c #4576A2",
"}  c #4A76A5",
"|  c #457AA2",
" . c #4A79A4",
".. c #4E7CA8",
"X. c #5F6CB6",
"o. c #5F6EB8",
"O. c #5E73B5",
"+. c #567FB3",
"@. c #5A7EB5",
"#. c #5F74B8",
"$. c #5C7FB8",
"%. c #616EB6",
"&. c #636FB9",
"*. c #6174B6",
"=. c #6178B7",
"-. c #6376B9",
";. c #657BBC",
":. c #697EBE",
">. c #667DC0",
",. c #697FC1",
"<. c #6E76CB",
"1. c #7177CC",
"2. c #737DCE",
"3. c #767ED1",
"4. c #44839C",
"5. c #4982A2",
"6. c #5783B3",
"7. c #5A81B6",
"8. c #5788B4",
"9. c #5A8AB5",
"0. c #5E81B9",
"q. c #6482BE",
"w. c #6980BF",
"e. c #648ABB",
"r. c #688FBF",
"t. c #6790BF",
"y. c #6890BE",
"u. c #6682C0",
"i. c #6C83C4",
"p. c #668AC1",
"a. c #6A8CC4",
"s. c #6E86C8",
"d. c #6E89C8",
"f. c #7185C6",
"g. c #718BC7",
"h. c #7285CA",
"j. c #7985CF",
"k. c #748BCA",
"l. c #788DCD",
"z. c #6A91C1",
"x. c #7494CE",
"c. c #7891CF",
"v. c #7681D1",
"b. c #7684D0",
"n. c #7A86D2",
"m. c #758FD0",
"M. c #7C8BD3",
"N. c #7692D1",
"B. c #7B97D5",
"V. c #7C95D4",
"C. c #7698D1",
"Z. c #7D98D6",
"A. c #7E94D9",
"S. c #7F99D8",
"D. c #7F9ADB",
"F. c #7DA2C3",
"G. c #7F9DE0",
"H. c #8092C2",
"J. c #8098D7",
"K. c #8099D7",
"L. c #8095DB",
"P. c #809AD9",
"I. c #819CDB",
"U. c #829CDB",
"Y. c #829DDD",
"T. c #85A2DE",
"R. c #88A4DF",
"E. c #96A9DA",
"W. c #98ABDB",
"Q. c #819EE0",
"!. c #86A2E1",
"~. c #84A4E2",
"^. c #86A4E3",
"/. c #87A6E5",
"(. c #8AA5E2",
"). c #89A7E5",
"_. c #8BA8E4",
"`. c #8CA8E4",
"'. c #C1D2F0",
/* pixels */
"(.2._ W 6 | Z.P.S.S.7.u Z ' b.^.^.3._ W 6 | Z.P.P.K.7.u Z _ j.^.T.3.] W 6 | Z.I.I.P.7.u Z ' b.^.^.3._ ! 6 { V.P.P.P.7.u Z ' j.^.",
"f.I.-.- = r w 8 D H : ; b f.Q.;.,.I.-.- = r w 8 C H : ; b f.I.:.:.I.-.- = r m 8 D H : ; 8 f.I.:.w.I.-.- = r m 8 D H : ; b i.^.i.",
": i.(.-.b 4 $ $ 6 f o b k.(.;.= : u.(.;.9 4 $ $ 6 e $ 9 f.(.-.& : i.^.-.9 4 $ o 4 f o b f.(.-.@ ; u.(.-.8 4 $ o 6 f o 9 k.).;.= ",
"4 - k.).f.= 7 S 7 X m m.).k.~ < > - k.).s.= 7 j r X m c.^.k.Q < > - k.`.f.= 7 g 6 X m V.).h.I < > - k./.f.= 7 S 7 X b m.).k.Y < ",
"l ; m l.^.w.5.4.j 9 m.).k.B n 1 h ; m k.(.u.| 4.z w m.).l.9 n i h ; m l.^.w.5.4.j w N./.k.b n 1 l ; m l.(.w.5.4.z 9 m.).k.m B 1 ",
"e.R 4 m l.(.r.r w s.^.i.w 4 ; p.e.W 4 5 k.(.a.r w d.^.i.w 4 = p.r.W 4 5 k.`.z.r w d.).s.w 4 ; p.e.R 4 w k.`.y.7 w d.^.i.w * ; p.",
"V.5 d a A k.^.O.,.).:.: ; ; w P.V.w g 7 N k.R.O.:.(.:.= ; ; 9 P.V.5 d 7 N k.I.O.:.(.:.: ; ; w P.V.w j a r k.T.*.:.(.:.= * ; 9 P.",
"V.- & J l : :.^.^.;.N g ; & r P.V.- & J l : :.^.^.:.r g ; $ r I.V.- * J l ; :.(.).:.N g ; $ r P.K.: & S l : :.^.(.:.r f ; $ r K.",
"V.-   6 h ; ;.(.^.*.G k : $ w P.V.-   6 l ; -.^.^.O.G k ; $ w P.V.-   6 s ; ;.^.^.O.G k ; $ w P.V.-   6 h = ;.^.^.*.G j ; $ w V.",
"l.- $ 6 r :.`.f.s.^.=.; & 4 w I.V.- $ p r :.(.k.s.^.:.; & 4 9 S.V.- $ p r w.(.f.s.^.:.; & 4 w P.V.- & p r :.(.k.s.(.:.; & 4 w S.",
"@.4 $ 5 >.!.f.- C x.!.-.; $ w a.0.4 $ 4 ;.(.f.- N x.I.#.; & w a.0.4 $ 4 >.(.s.- N C.^.-.; $ w a.q.4 $ 4 ;.^.s.- C x.T.O.; & w a.",
"h $ ; u.!.k.w 3 h C V.^.*.p 3 v h $ ; w.Q.k.w 2 h C l.Q.=.p 3 v h $ ; w.S.k.m 2 h D N.Q.*.p 3 v h $ ; w.Q.k.w 4 h C N.^.*.6 3 x ",
"c w u.).l.N * 2 3 & F V.(.9.& y c 5 :.).k.N * 2 3 & F V.(.9.& y c 5 ;.).l.N * 2 3 & F V.^.8.& e c 7 :.).l.r % 2 3 & F V.^.9.* r ",
"0 >.^.k.m * & O + + o V V.I.X.( B :.I.s.m * & O X o o V V.S.o.( B :.I.s.m * o X X + o V B.I.%.( B :.!.s.m * & O + + + M V.I.%.) ",
";.I.i.b & - U - 5 = = 4 M k.T.*.O.T.s.8 & = P - 5 = = 4 m k.T.*.O.I.f.8 & - P - 5 = = 2 m k.T.*.O.T.f.b & = P - 5 : = 2 V k.I.-.",
"T.v._ W f } A.V.B.B.0.p M / n.I.T.b._ W e { A.V.B.V.0.p V / n.I.T.v.^ Z 7 } A.V.Z.V.7.p V / h.T.T.j._ ! 6 K L.V.B.B.@.p V ^ l.T.",
"^.2._ W 6 { Z.P.I.P.+.u Z ' 2.^.R.1._ ! 6 | Z.I.I.P.7.u Z ' 2.T.T.<._ ! 6 K Z.I.I.P.+.u Z ' 2.^.(.1._ ! 6 K V.I.I.I.6.u Z ' j.T.",
"f.I.-.- = r 9 - N H : * b f.I.-.:.I.-.- = r w - N D ; * b f.I.:.:.I.-.- = r w - C D : * 8 f.T.-.:.I.-.# = r 9 - N H : * b f.I.,.",
": ,.^.-.9 4 $ $ 6 e $ b s._.:.& ; i.^.-.9 4 $ $ 6 f o 8 k.`.;.& ; i.^.-.8 4 $ o 4 6 o 9 k.^.:.= ; u.^.-.9 4 $ $ 6 6 $ b k.).;.= ",
"4 - k./.i.= 7 S 7 X m V.(.f.Y < < - k.).i.- 6 j 7 X B m.^.k.Q < < - k.).i.= 7 j 6 X m l.(.k.I > < - k.).f.= 6 j 7 X m N./.h.Y < ",
"z ; m k.^.u.5.4.j m m.).k.m n 1 h ; b k.(.u.L 4.j 9 m.).k.b B i h ; m k.^.u.L 4.j w m.).k.m n 1 l ; m k.^.w.5.4.j w l./.k.m n 1 ",
"e.R q w l.(.z.r w s.^.i.w * ; p.e.E ; w l.(.z.r w d.!.i.w ; = p.e.R 4 w k.(.r.7 w d.(.s.w ; ; p.e.R 4 w k.(.t.r w d.^.i.m 4 ; u.",
"V.w g r D k.T.O.u.^.;.: * * w I.V.: g g r k.T.O.,.(.;.= * ; 9 P.V.5 d a r d.R.O.,.^.:.- * * 9 S.V.w d a r g.T.O.u.^.;.: ; ; 9 S.",
"V.: & J l : w.^.^.-.r f ; $ r I.V.- & j l : :.^.^.:.r g ; $ r P.V.- & z l : :.^.^.:.r g ; $ r P.V.- & S l : :.^.^.:.r f ; & r K.",
"V.-   6 h ; ;.^.^.O.G k ; $ w P.V.-   6 h ; -.^.!.-.G k ; $ w P.V.=   6 s ; ;.^.T.O.G k ; $ w P.V.-   6 h ; -.^.^.-.G k : $ r V.",
"l.- $ 6 w :.^.k.s.^.:.5 & 4 w P.V.- o 6 r :.`.s.s.^.=.: $ 4 w P.V.= $ 6 w :.(.f.s.^.:.; & 4 w S.V.- $ p 7 :.(.s.s.^.;.: & 4 w A.",
"@.4 $ 5 >.!.s.- C C.^.=.; $ r a.$.4 $ 4 ,.^.s.- N N.Q.#.; $ 6 a.0.4 $ 5 >.^.i.- C x.I.-.; $ r p.0.4 $ 4 :.^.i.- N N.^.-.; $ r r.",
"h $ ; u.S.s.w 3 h C l.!.*.f 3 x h $ : w.Q.l.w 2 h C m.!.=.p 3 c h $ ; :.^.k.w 3 h C c.^.O.p 3 v h $ ; u.Q.s.w 3 h D N.Q.=.p 3 x ",
"c w :.).k.r % 4 3 & C V.(.9.$ e c 7 ;.).k.r % 2 3 $ F V.^.9.& e c w :.).k.N % 2 4 * F V.(.9.& y c 7 :.).k.r 2 4 3 & F V.^.9.& w ",
"B :.S.s.m * + X X o o M V.S.o.( B :.S.i.m * o   X o + B V.I.o.T 0 :.I.s.m * & X X + o M V.S.o.( n :.Q.i.m * & O + + o V V.I.o.) ",
";.T.i.8 & - U - : : = 4 B k.T.*.O.T.s.8 & = P - 5 - = 2 B k.I.O.*.I.i.8 & - U - w : = 4 m f.I.O.O.I.i.8 & = P - 5 : = 4 B k.T.:.",
"T.j._ W 6 { A.V.B.B.7.p V / j.I.I.j.^ Z 6 { A.V.V.V.7.p Z / n.T.T.j._ W g ..A.V.Z.V.7.p V _ n.I.I.2._ W 6 K A.V.V.V.7.p V / n.T.",
"^.<._ ! 6 { B.I.S.A.+.u Z _ 2.R.(.<._ W 6 K Z.P.I.P.7.u Z ' v.T.R.2._ ! 6 | S.S.I.P.+., Z ' 2.^.^.<._ ! 6 K B.I.I.P.7.u F ' 2.^.",
"s.I.-.- = e 9 - D H ; * b f.Q.;.:.I.-.- & r w - D H : ; 8 i.Q.;.:.S.-.- & 6 9 - N H : * 8 i.S.=.:.I.;.# = r w - D H : ; b f.S.i.",
"9 u.^.-.9 4 $ $ 6 f $ 9 k.`.;.@ ; i.^.-.9 4 $ & 6 6 $ b k.(.;.= = ,.(.;.9 4 $ $ 6 f $ b k.^.;.@ ; i.^.;.b 4 $ $ 6 f & 8 f.(.;.= ",
"> - k.).i.= 6 j 6 X B V.^.h.Y < > - k.).f.= 6 g 7 X m V.(.k.Y < > - k./.i.= 6 g r X m m.).k.Y > < - k.`.f.= 7 j 6 X B V.^.k.Q < ",
"z ; m l.^.u.5.4.j w m.).k.9 B i h * m k.^.u.4.4.z w c.).k.m B 1 z ; m k.^.u.L 4.z w N./.k.m B 1 h ; m k.^.u.5.4.z w m.).k.m B i ",
"e.E q w k.`.z.r w d.^.i.w 4 ; a.e.R 4 5 k.(.p.r w d.(.f.w 4 ; a.e.R 4 w k.^.z.r w d.^.i.w 2 ; p.e.W 4 w k.(.r.7 w d.^.i.w 4 ; u.",
"V.w d 7 D k.I.O.u.(.:.: ; ; 9 P.K.w p a r d.T.O.,.^.;.: * ; 9 P.V.: d a r k.T.O.>.^.;.= * ; 9 S.P.w d a N k.T.O.,.(.;.- ; ; w S.",
"V.- & J l : u.^.^.:.r g ; $ N I.V.- & J z ; :.^.^.;.r g ; $ r P.V.- & j l ; :.^.^.:.r f ; & r P.S.- & J x : :.^.^.:.r f ; & r P.",
"V.- X g h ; ;.^.^.*.G k ; $ w P.V.=   6 s ; -.!.^.O.G G : $ w P.V.=   6 s ; -.^.!.O.G k ; $ w S.Z.-   6 h ; -.(.^.*.G k ; $ w V.",
"V.- & p r u.(.f.s.^.=.5 & 4 w I.V.= $ p 7 :.(.s.s.^.:.; $ 4 w P.B.= $ p r :.(.k.s.^.:.; & 4 w P.V.= $ p r :.(.k.s.^.=.; & ; w S.",
"@.4 $ 5 >.(.s.- N x.T.O.; $ w a.0.4 $ 5 ,.!.i.- N x.I.=.; $ w p.0.4 $ ; >.!.i.- C C.!.-.; $ 6 a.0.4 $ 5 ,.^.s.- N x.T.*.; & w p.",
"h $ ; u.!.k.w 3 h C N.I.*.p 3 x h $ ; u.!.k.5 3 h C N.^.=.f 3 c h $ ; w.G.k.w 3 h C N.^.O.p 3 c h $ ; u.Q.d.w 3 h N l.^.-.f 3 x ",
"c w ,.).k.N 2 2 6 & C V.^.8.& y c 7 :.).k.N * * 4 & F V.(.9.& y c w ;.(.k.r % 2 4 & F V.^.9.& y c w :.).k.r % 2 4 & C V.^.9.* r ",
"t ;.T.k.m * & + + + o V B.I.*.( 0 :.!.s.m * &   X + o V V.S.o.( B :.S.s.m * + X X o o M V.S.%.( n :.S.s.m * + . + + o V V.T.%.) ",
";.I.u.b & - U - 5 : = 4 M k.R.-.O.S.s.b & = P - 5 : = 4 B f.T.*.O.T.i.8 & = P - 5 = = 4 B k.T.*.O.I.s.8 & - U - 5 - = 2 M l.T.;.",
"T.n._ W p  .L.V.Z.Z.@.p V ` n.T.T.3._ W e  .L.V.V.V.7.p M / n.T.I.2.^ W e } L.V.V.V.@.6 V / h.T.T.v._ W 6 { L.V.V.V.7.p V / M.T.",
"(.2._ W 6 | Z.I.I.I.7.u Z ' v.T.T.2._ ! 6 | Z.I.I.P.7.u Z ' 2.R.T.<._ ! 6 { Z.I.I.P.+.u Z _ j.^.T.<._ ! 6 K V.I.I.I.7.u Z [ v.T.",
"f.S.-.- = r w 8 D H : * b f.S.-.:.I.;.- = r 9 8 C H : ; b f.I.;.:.I.-.# = r 9 8 F H : ; b f.I.-.:.I.-.- = r 9 - N H : ; b f.I.u.",
"9 i.(.-.8 4 $ $ 6 e o 8 k.`.;.@ ; i.^.;.8 4 $ $ 6 f o 8 f.(.:.& ; i.!.-.8 4 $ & 6 e o n k.(.-.& ; i.^.=.9 4 $ $ 6 f & b k.(.-.= ",
"4 - l./.s.= 7 j 6 X B m.^.h.Q < > - k.).f.- 7 j r X B m.^.k.Q < < - k.).f.- 7 j 7 X B N.).h.Q < > - d.).f.= 6 j 6 X m N.).l.Q < ",
"z ; m l.).u.| 4.j 9 V.).k.b n 1 h ; m k.^.u.5.4.j w m.).k.b B i h ; m k.!.u.5.4.j w m./.k.B n 1 h ; m k.^.w.5.4.z w N.).k.m B 1 ",
"e.E 4 m l.(.z.r w d.!.i.w ; ; p.r.E 4 : k.(.z.r w d.!.i.w 4 ; p.e.E q 5 k.`.z.r w s.).i.w 4 : p.e.E q w k.`.z.7 w d.^.i.w * = q.",
"V.5 j g A k.T.O.u.).:.= ; ; w I.A.w p 7 D k.T.*.i.(.:.: ; ; w P.V.5 d g A d.T.O.i.).:.: * * w P.V.w d a D k.T.*.u._.:.= * ; 9 P.",
"N.: * J z : :.^.(.:.N g ; $ r I.V.- & J l : :.(.^.:.N g ; $ N I.V.- ; J l ; :.(.).:.r g ; $ r I.V.- & J l : :.^.(.:.N g ; & N P.",
"m.-   6 h ; :.^.^.*.G k : $ w P.V.-   6 h ; ;.(.^.*.G k : $ w P.V.-   6 h ; -.^.^.*.G k ; $ w P.V.-   6 h ; ;.(.^.*.G k : $ w V.",
"l.- & p r :.`.f.s.(.:.; & 4 w I.V.- $ 6 r :.(.f.s.^.:.: & 4 w P.V.- $ p r :.(.s.s.!.:.5 & 4 w P.V.- $ p r :.`.f.s.(.:.; & 4 w S.",
"@.4 $ 5 u.^.i.- C C.!.-.; & 7 a.q.4 $ 5 ;.!.i.- N x.^.-.; & w p.0.4 $ : ;.!.i.- C C.^.*.; & w a.q.4 $ 5 :.^.i.- C x.I.-.: & r a.",
"h $ : u.Q.l.w 4 l C N.^.=.p 3 v h $ ; u.Q.s.w 3 h C l.!.=.f 6 v h $ ; u.Q.s.w 3 h C N.^.-.f 3 c h $ ; w.I.k.: 3 h N c.`.H.j 6 x ",
"c w u.).k.N * 2 4 & F V.^.9.* y j w :.).k.r % 2 4 & D V.(.9.& y c 7 :.).k.r % 2 4 & F V.^.9.* e z w :.(.k.N 2 2 6 & F E.'.F.* r ",
"B >.I.s.m * & O + + + M V.I.&.( 0 ;.^.s.w * & O + + + V B.I.o.( n :.I.s.m * & + X + + V B.T.*.( n =.^.k.w * & . + + + Z W.T.%.) ",
";.I.u.8 & - U - w : = 4 V k.I.*.-.I.u.8 & = U - w : = 4 M k.I.*.*.I.i.8 & - U - w : = 4 V k.I.*.*.I.i.b & - U - 5 : = 4 m f.I.-.",
"T.n._ E g ..L.V.B.V.7.d Z _ M.T.T.n.^ W g  .A.V.B.V.0.f Z / M.T.T.n.^ W g ..A.V.B.V.0.j Z / M.T.T.n._ W g  .L.V.V.V.0.d V / M.T."
};
