/* XPM */
static char *f2abb8e6b0ae4e68c18f8b95c7dc0eb0PSRxvUsWX6ux3Cp0[] = {
/* columns rows colors chars-per-pixel */
"64 64 245 2 ",
"   c #17153A",
".  c #18163A",
"X  c #1A193C",
"o  c #1C203E",
"O  c #23213E",
"+  c #1A1B43",
"@  c #161848",
"#  c #1B1C4B",
"$  c #181A56",
"%  c #221D4A",
"&  c #1D2344",
"*  c #1B224C",
"=  c #1A284E",
"-  c #1B2454",
";  c #1C2A54",
":  c #15245D",
">  c #1C255B",
",  c #1C2B5C",
"<  c #1D325D",
"1  c #272748",
"2  c #22224D",
"3  c #2D234C",
"4  c #31294D",
"5  c #242552",
"6  c #212B54",
"7  c #222B5C",
"8  c #28295A",
"9  c #332756",
"0  c #352B54",
"q  c #352B5B",
"w  c #3B2D5C",
"e  c #22335D",
"r  c #24365C",
"t  c #2B325C",
"y  c #39335C",
"u  c #1A1D61",
"i  c #1B2663",
"p  c #1C2C64",
"a  c #1B2669",
"s  c #1B2A6C",
"d  c #1C3464",
"f  c #1C3C65",
"g  c #17376E",
"h  c #1C336C",
"j  c #1C3C6C",
"k  c #1E2C71",
"l  c #1C3572",
"z  c #1B3B74",
"x  c #173A78",
"c  c #1B3C7B",
"v  c #232463",
"b  c #222C63",
"n  c #2B2A66",
"m  c #222D6D",
"M  c #282A6B",
"N  c #322D61",
"B  c #3C2E62",
"V  c #362E6E",
"C  c #213464",
"Z  c #2B3365",
"A  c #293866",
"S  c #22346A",
"D  c #223B6C",
"F  c #2D3B6B",
"G  c #363664",
"H  c #3D3364",
"J  c #3B346B",
"K  c #333B6C",
"L  c #3D3C6C",
"P  c #272E73",
"I  c #322F73",
"U  c #233D72",
"Y  c #2C3D73",
"T  c #243278",
"R  c #223D7B",
"E  c #333174",
"W  c #3C3576",
"Q  c #323C74",
"!  c #3C3B73",
"~  c #343C7A",
"^  c #3C3B7A",
"/  c #413264",
"(  c #44356A",
")  c #423C6D",
"_  c #4B386D",
"`  c #443D74",
"'  c #4C3B74",
"]  c #433878",
"[  c #4B3D79",
"{  c #523E75",
"}  c #533F79",
"|  c #1F456A",
" . c #1E416D",
".. c #1D4374",
"X. c #1D4975",
"o. c #1D437B",
"O. c #1E4C7C",
"+. c #1F5478",
"@. c #1E537C",
"#. c #234668",
"$. c #23426C",
"%. c #2A446D",
"&. c #2B4A6E",
"*. c #35426C",
"=. c #31516F",
"-. c #234374",
";. c #2C4374",
":. c #234C73",
">. c #2A4C74",
",. c #22447C",
"<. c #2B457A",
"1. c #224B7B",
"2. c #2C4B7A",
"3. c #334275",
"4. c #3D4274",
"5. c #3D4776",
"6. c #344B74",
"7. c #33437A",
"8. c #344B7B",
"9. c #3A4B7D",
"0. c #245375",
"q. c #2B5475",
"w. c #2F5877",
"e. c #23547C",
"r. c #2A547B",
"t. c #235B7C",
"y. c #2A5A7B",
"u. c #355777",
"i. c #34517C",
"p. c #3D567B",
"a. c #1F617E",
"s. c #27637D",
"d. c #31617E",
"f. c #41416E",
"g. c #434273",
"h. c #4C4375",
"j. c #474C75",
"k. c #43437A",
"l. c #4D447B",
"z. c #4D4B7D",
"x. c #504277",
"c. c #53437D",
"v. c #5A437D",
"b. c #514B7D",
"n. c #45567D",
"m. c #62467E",
"M. c #1D3D81",
"N. c #293381",
"B. c #443B82",
"V. c #1B4582",
"C. c #184486",
"Z. c #1E4A82",
"A. c #1D4C8D",
"S. c #1E5784",
"D. c #1B4D92",
"F. c #1D5C93",
"G. c #1D5896",
"H. c #214582",
"J. c #2C4783",
"K. c #214A84",
"L. c #374B85",
"P. c #245482",
"I. c #2D5583",
"U. c #235B84",
"Y. c #2A5983",
"T. c #235B8A",
"R. c #285A8B",
"E. c #335383",
"W. c #3C5384",
"Q. c #345989",
"!. c #265995",
"~. c #1E6386",
"^. c #1D6295",
"/. c #246483",
"(. c #2B6482",
"). c #256A84",
"_. c #2B6A86",
"`. c #24638B",
"'. c #2A628C",
"]. c #296B8B",
"[. c #366A88",
"{. c #346C8C",
"}. c #25728B",
"|. c #29748D",
" X c #35778C",
".X c #296795",
"XX c #356994",
"oX c #2A7B92",
"OX c #377B92",
"+X c #474A82",
"@X c #4D4B82",
"#X c #544582",
"$X c #5B4683",
"%X c #544B83",
"&X c #5B4984",
"*X c #5A4789",
"=X c #5D4C8C",
"-X c #4B5285",
";X c #435A84",
":X c #445389",
">X c #465688",
",X c #545387",
"<X c #5E518E",
"1X c #4A5D91",
"2X c #5F5391",
"3X c #5E5C92",
"4X c #634A86",
"5X c #634C8B",
"6X c #694D88",
"7X c #62538E",
"8X c #6C528B",
"9X c #70518A",
"0X c #6A4F90",
"qX c #635591",
"wX c #645B94",
"eX c #695A97",
"rX c #6A5C95",
"tX c #785C96",
"yX c #745A9A",
"uX c #43688B",
"iX c #59628B",
"pX c #456A97",
"aX c #4C7094",
"sX c #577899",
"dX c #68638E",
"fX c #686397",
"gX c #786797",
"hX c #65799E",
"jX c #7C69A0",
"kX c #637DA4",
"lX c #697CA0",
"zX c #8B5F96",
"xX c #8A6399",
"cX c #36839A",
"vX c #328FA8",
"bX c #3494A8",
"nX c #42839A",
"mX c #44859A",
"MX c #4C8DA7",
"NX c #5D85A9",
"BX c #4299AD",
"VX c #5B92AE",
"CX c #5F92B0",
"ZX c #618AAB",
"AX c #96A5C1",
/* pixels */
"..j 6 r d.L p 7 w q 9 y v.%X-.s.0.s.{.>XK 2 r 4.S - & X X ; f X.X.f 6 r u.L , 7 / w 4 y &X,X>.(.y.s.{.:XK 2 r 3.D - + + + ; j -.",
"x a D @.XXL.d < A q 3 v.yXyXW.t.s.u.3XeX} B j.i.C p d v s h s x x a D 0.XXL.f < Z q 3 v.yXyX9.t.s.u.3XeX[ B j.W.S p d b s l s z ",
"> v F {.r.K.l O.y.6.0 _ 4XqX[.:.t.8.c.c.[ ;XgXdX2.> h n N.T a - - v K {.2.K.l O.y.6.q ( 4XwX[.:.e.8.%Xc.[ W.gXdX>.> l n T T a 7 ",
"+ m J l.i.O.o.2.) n.H h.x.b.>.e 0.0.H $X` >.z.-X].p z ^ V M s + X a J l.i.K.o.2.g.n.y _ } b.>.C 0.0./ 4X` >.@X>X'.p l ~ V M k 2 ",
"& <.` w 6.C j c.fXuXb.gXgXtX7.Z y.>.v.0X=X+X7.;.U.; #.J.Z 8 ;.& o <.g.w 5.D z b.wXpX@XgXgXgX7.Z y.>.$X0X<X+X~ <.T.- C <.Z q Y 1 ",
"1 -Xl.w d.y.-.) ;X1X%XhXCXgX8.;.(.%.( %X#Xv.' F o.7 s.).@.K @X1 O -Xb.w d.Y.-.H ;X1X%XhXVXdX9.;.`.F ( c.&X#X_ F ,.7 /./.1.! %X1 ",
"0 =X6.-.o.F.,...r g._ x.MXmX>.U.1.t p.nXf.4Xh.r.c z ..-.2.g.7X4 3 <X6.-.o.!.-.X.A g._ h.MXnX>./.1.t p.nXL 5Xh.r.R z z -.2.) qXy ",
"0 7X3.J.H.C.g U ;.:XrX4XtXsX{.`./.w.nXkXx.$X5.P.H.e.S.3.^ ) qX4 4 7X3.J.H.c g U ;.:XrX6XtXsX{.`./.w.aXkXx.&X5.e.K.@.O.3.^ ) qXy ",
"w 5X/ { 7.C.d H.!..XNX9XzXhXbXP./.%.3XyX4XB >.,.P.e U.[.' ( 5X0 0 5X/ { <.C.h P.!.XXNX8XzXhXbXU./.;.3XyX5X/ >.,.P.< /.{.' ( 5Xw ",
"H *X` k.F o.S.F.Z 2.pX4Xm.z.q.y.|.r.-XNXwX4.S.H.G.A. .&.J ` *Xq 0 *X[ g.%.o.@.^.Z 2.pX4Xm.h.q.y.oX0.-XZXfX4.O.o.G.A. .&.J ] *X( ",
"5 B.W ,.`.O.~.~.%.d.I.#X' 9 {.}.f X.0.BXuXy.z l o.A.l P.p V ] % 2 B.W -..XO.~.S.&.s.Q.%X' 9 {.}.f X.0.BX[.T.o.g Z.A.h e.h V ] 5 ",
"& E ^ <.'.z z 1.#.&.;.@X` 6. X_.>.D d U.(.$.P.cXU.h j T.<.^ I + + E ^ 7.R.z x O.| 0.>.z.k.=.OX_.>.D d U.(.j P.cXU.h z T.<.9.I 2 ",
". v -XQ.,.z c c Q.L ;.Y F '.8.q.;.-.O.o.Q J cXvXF.c o.o.W.;Xn .   v >XQ.-.c c l Q.L 3.Q K '.8.q.0.:.O.o.~ J cXvXT.c o.z W.;Xn + ",
"+ , i.,.H.z l R k.) 7Xl.7.e.q.{.e.O.`.o.~ 9..Xz D.s p S R I.C @ + , 8.R H.S s R +X) 4Xl.7.P.y.{.e.O.`.o.Q W..Xl D.s p h U P.p * ",
"j i ,.p v i $ P k.l.8XiX%XK a./.U._.#.; U R.H.c c : c m > K.p d f p ,.p v i $ P k.l.8XiX@XF a.U.U.).#.; D R.K.R z : z m > K.p f ",
".., - + % # @ v #Xv.;X_.K *.OX}.`.-.< d :.<.S 6 - $ # + . - i j j > - + + # $ v l.} ;X_.K *.OX}.`.-.< < 1.-.b 6 * $ * +   * i j ",
"..d - ; =.G > ; B q t y { -Xr.).+.t.{.W.F 5 r A d # + X . & d  .g d * ; =.N > , q 9 t G { -Xy.).+.t.{.W.F 5 6 F C - + . . & d ..",
"c a f e.XXL.d < Z q 3 v.yXeX9.s./.w.3XeX} B j.W.d p d 7 s l s x g i D e.XXL.d , Z q % v.yXeX8.t.).u.3XeX[ B j.i.S p d v s l s z ",
"> v K {.r.K.h X.y.6.9 ( 5XwXuX:.+.6.c.} [ >XgXiX2.> h 8 T T a - - i F {.>.K.l ..0.&.0 ( 4XwXuX:.e.8.l.c.[ :XgXdX2.- h n T T a , ",
"+ m J l.i.Z.c 2.) p.y _ c.b.r.C 0.0./ &Xk.>.z.>X]., U ~ V M k + + v J l.i.O.c 2.) p.H ( c.b.r.C :.0.( &Xk.>.@X-X]., z ~ V M s * ",
"& ;.` / 5.D -.c.wXpX%XfXgXtX7.Z y.&.$X0X<Xz.7.2.U.= D J.Z 8 Y & & <.` B 6.S j c.fXXXz.fXjXtX3.Z Y.&.v.0X=Xz.7.<.U.= $.J.Z N ;.1 ",
"1 ,Xx.B (.Y.D H ;X1X%XkXCXdX9.U /.%._ v.&Xv.( F o.b /.).e.K @X1 1 ,Xc.w y.U.U L ;X1X&XlXVXrX9.D `.F ( c.&Xc.` F ,.7 /.}.@.K %X1 ",
"0 7X6.-.,.!...-.A f._ b.MXnX>.e.1.t u.cXL 4Xh.2.c z ..-.2.g.qX4 4 7X3.-.o..X,...r f._ h.MXnX>.U.O.t u.cX) 4Xh.r.R z ..1.2.) 7Xy ",
"0 <X3.J.,.o.z -.3.:XrX6XtXsX{.`./.w.aXkXx.c.5.P.Z.e.S.Q ] ) <X9 9 <X3.J.H.V.g U 3.:XrX6XtXsX{.`./.w.OXkX' $X5.P.H.y.S.3.L.) 7Xy ",
"w 5X( { 7.C.S ,.!.XXNX8XxXhXbXU.s.;.3XyX5X/ >.,.P.e /.{.{ ( =X0 9 5X/ { 7.c p H.!.XXNX9XxXlXbXR./.<.3XyX5XH 0.-.P.e U.[.' ( 5XH ",
"B *X[ g.F o.@.^.Z 2.pX8X4Xz.q.y.oXy.-XNXfX4.O.c .XA.-.>.J ] *Xw 0 *X[ g.F z @.F.Z 2.pX8Xm.z.y.Y.oXr.-XNXfX4.O.c G.A. .&.J ] *X/ ",
"5 B.W ,.U.O.`.S.#.(.I.#X[ q {.}.f :.y.BXuXP.c l Z.C.h e.s V ] 2 2 B.W ,.U.O.~.~.#.d.Q.%X' 9 {.|.j :.0.BX[.P.c h Z.D.l P.h V ] 8 ",
"& E ^ ;.R.c g O.D &.>.@X` 6. X_.>.D C T.s.f e.cXU.d j T.-.^ E + + E ^ <.U.c z 1.$.q.>.z.k.6. X_.r.U d U./.D P.cXU.h ..T.-.^ I 2 ",
"  v -XR.,.l x l Q.! ;.3.F ].8.q.;.-.O.o.Q H cXvXF.c o.o.E.;Xn .   v -XR.,.x x c Q.! 3.Y 3..X8.0.y.1.O.c Q L OXvXT.c X.o.W.>Xn X ",
"+ , E.,.R m S R 9.) 5X[ 7.P.y.{.@.O.`.Z.~ :X.Xz D.a p l U I.p # + , E.,.R S k R 9.L 5Xl.L.P.y.{.0.,.`.H.~ W..Xl D.k p S R I., - ",
"j p K.p v a $ M 5.h.8XiX@XF ~./.U._.#.; U '.K.l z : c m v K.s j j p K.s v u $ M 5.h.8XiX%XF ~./.U._.#.; U R.H.c z i c m > K.s j ",
".., - # % # @ v #X} p._.K *.OX}.`.-.< < :.-.S 6 - $ # +   * > j z i - + % @ @ v #Xc.n._.G *.OX}./.-.< < 1.-.C 6 - $ # +   - i $.",
"..d - < u.G > , q q t y { -Xy.).+.t.{.W.Q 5 6 K S # X . . & <  .z d ; < =.G > ; B q 8 y { -XY.).+.t.{.W.F 5 6 A S * X . X & < -.",
"x m D +.{.L.f , A q 3 v.yXeX9././.w.3XeX} / j.E.S p d m l s s z x a D e.[.L.h , Z q 3 v.yXeX9.`.}.w.3XeX[ B j.i.C p d v k l s z ",
"- Z Q [.>.K.l X.t.>.9 _ 5XwXuX:.@.8.l.} [ >XgXiX2.> l Z N.T a - - v Q {.2.H.l X.0.6.q ( 5XwXuX:.e.8.c.} [ >XgXiX>.> h n N.N.s , ",
"+ p J z.i.O.c 2.) p.H _ } b.y.D 0.e.( $Xk.>.z.>X.Xp z ^ E M s + + m J c.8.O.c 2.g.p.H _ { b.r.C :.0.( $X! >.z.>X]., l ~ E P k * ",
"1 ;.` H 6.C z c.eXXXz.fXgXtX3.Z Y.&.v.0X=Xk.~ 2.T.= #.J.F q Y & & ;.` / *.d g b.fXpXz.fXgXtX3.Z y.&.v.0X=Xk.Q 2.T.; $.J.A N ;.6 ",
"1 ,Xx.B d.Y.-.J ;X1X%XkXVXrX7.-.).;.g.c.%Xv._ F o.7 /.}.e.K @X1 1 -Xx.w d.y.U L ;X1Xc.kXCXrX8.D /.;._ #X&Xc._ F -.b /.}.e.K @X4 ",
"0 qX8.-.,.!.-.,.t g.' h.MXnX2.U.O.t p.cXL 4Xh.2.R z ..1.<.g.qX4 3 qX5.-.o..X,.X.t f.{ b.MXcX2.P.X.t u.cXf.4Xh.I.R z ..-.2.g.2X0 ",
"0 <X3.J.H.c z U 3.:XrX6XyXsX{.`.s.w.aXkX' #X5.P.H.e.S.3.] ) qX4 4 qX3.J.H.C.g U Y :XrX6XtXsX].`./.u.aXkXx.#Xj.Y.H.U.S.K k.) <X0 ",
"w 5X/ { <.C.h c !.XXNX9XxXhXbXU./.;.3XyX5XH >.H.P.< U.{.} ( 5X0 0 5X/ { L.C.d H.!.XXNX8XxXhXvXP./.;.3XyX5X/ y.,.P.C U.{.' ( 5Xw ",
"H *X` 4.;.o.@.F.Z 2.pX4Xv.z.q.y.oX0.-XNXfX4.O.,.G.A.$.&.H ] =Xw q =X[ g.F z S.F.Z >.pX6Xv.h.y.y.|.r.-XNXfX4.K.M.G.Z. .>.J ] *X/ ",
"5 B.W K.`.O.`.~.&.d.I.#X] 9 {.|.f :.y.BXuXY.c g Z.D.h O.p E B.2 2 B.^ ,.U.O.`.S.#.d.Q.#X] 9 {.|.f X.0.BXuXP.c l O.D.h P.s V ] 8 ",
"& E ^ <.U.c c 1.#.>.>.z.` 6. X(.>.D d U./.f P.cXU.d U T.<.~ E + + E ^ ;.R.c g ,.$.>.&.-X` 6. X_.2.D C U.(.$.P.cXU.h j T.<.^ I 2 ",
"  v >XQ.H.z c c Q.! ;.Y F '.8.>.%.-.O.V.Y G OXvXT.c ..o.W.;Xn .   v +XQ.H.z x x Q.! 3.7.Q '.6.q.&.-.O.o.7.J cXvX.Xc o.z W.;Xn + ",
"+ , E.H.,.m s R k.L 4Xl.7.U.y.{.0.O.`.Z.~ W..Xz D.s h S U P.p + X , E.R R k s R 5.) 8Xl.7.P.q.{.e.O.`.Z.~ W..Xc D.a p h R I., * ",
"j i ,.b v u $ P k.l.8XiX@XK /./.U.].#.; D R.K.l z : K.T > A.s d d s K.p v u $ P 5.x.8XiX@XF a./.U._.#.; D '.K.R c : x m 7 K.s j ",
".., - + % # @ v l.c.p._.K *.cX}./. .< < :.-.b 5 # $ # + . - i ....> - # # # @ 7 #Xv.p._.K *.OX}.`.$.; < :.<.C 5 - $ # +   - i  .",
"o.d ; < =.G > - q q t y { -XP.).+.t.{.W.F 5 6 A C # X X . & d j z d * ; =.G - , q 9 t y { -Xr.).0.t.{.:XK 2 6 A d $ X . . * d ..",
"x i D e.XXL.d , A q 3 v.yXeX9.t./.u.3XeX[ B j.i.C p d 7 s h s z g a D 0.XXL.h < Z q 3 v.yXeXW./.).w.wXeX} B j.W.D p d v s l s z ",
"- v F [.2.Z.l @.t.&.q ( 4XwXXX:.+.6.c.c.[ >XgXiX2.> h n T T i - - i K {.0.Z.l X.y.&.0 ( 4XwXuX:.0.i.,X} ' >XgXiX>.> l M T T a , ",
"+ m J l.i.Z.V.2.) p.H ( { b.>.e e.0.( $Xg.>.z.>X].p z ~ V M k + + v J l.E.O.x 2.g.p.H _ { b.r.e 0.0.( &Xg.>.@X-X].p z ~ V M s * ",
"& ;.g.w 6.D z l.fXpXb.gXxXtX7.Z y.>.v.0X=Xz.7.<.T.; #.2.F q ;.& o <.h.H 6.C l b.fXpX%XgXgXtX7.Z Y.q.$X0X=X+X7.<.T.; C <.Z N ;.1 ",
"1 @Xl.B _.Y.z J ;X1X%XlXVXdX8.F /.F _ c.%Xc.` K H., /.).e.L @X1 1 %Xc.H (.Y.U H ;X1X%XkXCXdX8.Y /.F ' c.&X#X_ F ,.7 /.).O.L @X1 ",
"0 =X6.<.o.F.,.o.r g._ h.MXmX>.e.e.t u.nXf.4Xh.I.R ..z -.8.g.<X4 4 <X6.<.o.!.-.X.A g.' b.MXnX>.e.O.t p.mX) 4Xl.r.R z z -.8.g.2Xy ",
"y 7X3.J.H.C.g U Y :XrX4XtXsX_.'._.w.OXkX' c.5.P.H.t.@.3.] ) wX0 4 7X3.J.H.o.g -.;.:XrX6XtXsX[.`./.w.aXkX' &X5.e.K.U.S.3.] ) qXy ",
"w 5X/ { J.C.d H.!.XXNX8XzXhXbXY./.%.3XyX4XH >.o.P.e /.{.' ( 5X0 0 5X/ { J.C.h o.!.XXNX8XxXhXbXP./.%.3XyX5XH >.,.P.< /.{.' ( 5X/ ",
"H *X` k.F o.S.F.Z 2.pX4Xv.h.y.y.|.0.-XNXfX4.Z.M.G.A. .&.J ] *Xw q *X[ k.A c @.F.Z 2.pX6Xm.h.y.y.oXr.-XZXfX4.O.c G.A. .&.J ] *X( ",
"5 ] ^ H.`.P.~.~.&.(.I.#X[ 9 _.}.f X.0.BXuXP.o.l Z.A.h S.h V ] 2 2 B.W -.`.O.~.S.>.d.Q.%X] 9 {.|.f :.y.BXuXY.o.g Z.A.h P.S E B.8 ",
"& E ^ 8.'.o.z K.$.>.-.@X` 6.OX_.>.D S P.(.D P.cX`.d z T.-.~ E + X E W ;.`.o.g O.$.>.>.z.` i.OX_.>.D S U.(.D P.cXt.d j .XsX+X~ * ",
"  v >XQ.o.z c c XXL ;.<.F `.5.r.%.-.@.V.Y J cXvX!.c X.z W.;Xn .   v +XQ.,.z c c Q.! 3.Q Q `.8.q.%.-.@.Z.Q J cXvX!.c o.aXAXlXn + ",
"+ , E.R R m s R W.L 4Xl.7.@.y._.e.Z.U.Z.~ W..Xz D.s p S R I., @ + , E.,.R m k R +X) 5Xl.7.S.y._.e.Z.U.Z.~ W..Xl D.s p Y iXQ.p - ",
"j i O.b v $ $ P k.l.8XiXz.K ~./.P.].#.- D '.H.l z i c m 7 K.s f f i ,.b v u $ P k.l.8XiXl.K ~./.t.].#.; U '.K.c c i c m > K.s D ",
"X.p 6 + % # $ M *X$X;X X4.K cX|.).-.6 < :.2.Y 7 5 - - % X ; p $.:.p ; + % # $ n #X$XuX X4.K OXoX].-.7 e e.2.S b 7 - - # + > p $."
};
